{
  "accessors": [
    {
      "bufferView": 2,
      "componentType": 5126,
      "count": 65532,
      "max": [
        1.1111630201339722,
        -0.35568198561668396,
        2.909519910812378
      ],
      "min": [
        -0.8877170085906982,
        -2.552427053451538,
        0.9040359854698181
      ],
      "type": "VEC3"
    },
    {
      "bufferView": 2,
      "byteOffset": 786384,
      "componentType": 5126,
      "count": 65532,
      "max": [
        0.9999353289604187,
        1.0,
        1.0
      ],
      "min": [
        -0.9999868869781494,
        -0.999729335308075,
        -0.9999978542327881
      ],
      "type": "VEC3"
    },
    {
      "bufferView": 1,
      "componentType": 5126,
      "count": 65532,
      "max": [
        0.9919430017471313,
        0.9919329881668091
      ],
      "min": [
        0.008066999725997448,
        0.4077160060405731
      ],
      "type": "VEC2"
    },
    {
      "bufferView": 0,
      "componentType": 5125,
      "count": 340695,
      "type": "SCALAR"
    },
    {
      "bufferView": 2,
      "byteOffset": 1572768,
      "componentType": 5126,
      "count": 26082,
      "max": [
        0.9263150095939636,
        -0.35495299100875854,
        2.8365368843078613
      ],
      "min": [
        -0.8877170085906982,
        -2.552748918533325,
        1.0330350399017334
      ],
      "type": "VEC3"
    },
    {
      "bufferView": 2,
      "byteOffset": 1885752,
      "componentType": 5126,
      "count": 26082,
      "max": [
        0.9999452233314514,
        0.999984860420227,
        0.9991382360458374
      ],
      "min": [
        -0.99997478723526,
        -0.9985072612762451,
        -0.9996015429496765
      ],
      "type": "VEC3"
    },
    {
      "bufferView": 1,
      "byteOffset": 524256,
      "componentType": 5126,
      "count": 26082,
      "max": [
        0.9896960258483887,
        0.9918980002403259
      ],
      "min": [
        0.01912200078368187,
        0.7156190276145935
      ],
      "type": "VEC2"
    },
    {
      "bufferView": 0,
      "byteOffset": 1362780,
      "componentType": 5125,
      "count": 139671,
      "type": "SCALAR"
    }
  ],
  "asset": {
    "extras": {
      "author": "iwamah1 (https://sketchfab.com/iwamah1)",
      "license": "CC-BY-4.0 (http://creativecommons.org/licenses/by/4.0/)",
      "source": "https://sketchfab.com/3d-models/small-dog-figurine-803bc4c9d2774f2394fc740b18b442c0",
      "title": "Small dog figurine"
    },
    "generator": "Sketchfab-12.65.0",
    "version": "2.0"
  },
  "bufferViews": [
    {
      "buffer": 0,
      "byteLength": 1921464,
      "name": "floatBufferViews",
      "target": 34963
    },
    {
      "buffer": 0,
      "byteLength": 732912,
      "byteOffset": 1921464,
      "byteStride": 8,
      "name": "floatBufferViews",
      "target": 34962
    },
    {
      "buffer": 0,
      "byteLength": 2198736,
      "byteOffset": 2654376,
      "byteStride": 12,
      "name": "floatBufferViews",
      "target": 34962
    }
  ],
  "buffers": [
    {
      "byteLength": 4853112,
      "uri": "scene.bin"
    }
  ],
  "extensionsUsed": [
    "KHR_materials_unlit"
  ],
  "images": [
    {
      "uri": "textures/material0000_baseColor.jpeg"
    }
  ],
  "materials": [
    {
      "doubleSided": true,
      "extensions": {
        "KHR_materials_unlit": {}
      },
      "name": "material0000",
      "pbrMetallicRoughness": {
        "baseColorTexture": {
          "index": 0
        },
        "metallicFactor": 0.0
      }
    }
  ],
  "meshes": [
    {
      "name": "Object_0",
      "primitives": [
        {
          "attributes": {
            "NORMAL": 1,
            "POSITION": 0,
            "TEXCOORD_0": 2
          },
          "indices": 3,
          "material": 0,
          "mode": 4
        }
      ]
    },
    {
      "name": "Object_1",
      "primitives": [
        {
          "attributes": {
            "NORMAL": 5,
            "POSITION": 4,
            "TEXCOORD_0": 6
          },
          "indices": 7,
          "material": 0,
          "mode": 4
        }
      ]
    }
  ],
  "nodes": [
    {
      "children": [
        1
      ],
      "matrix": [
        0.9998869895935059,
        0.006274051964282992,
        -0.013662224635481833,
        0.0,
        0.009843478910624981,
        0.4136681258678434,
        0.9103745222091676,
        0.0,
        0.011363363824784756,
        -0.9104061126708985,
        0.4135596156120298,
        0.0,
        -0.007343808189034462,
        4.24343204498291,
        1.9903602600097665,
        1.0
      ],
      "name": "Sketchfab_model"
    },
    {
      "children": [
        2,
        3
      ],
      "name": "model.obj.cleaner.materialmerger.gles"
    },
    {
      "mesh": 0,
      "name": "Object_2"
    },
    {
      "mesh": 1,
      "name": "Object_3"
    }
  ],
  "samplers": [
    {
      "magFilter": 9729,
      "minFilter": 9987,
      "wrapS": 10497,
      "wrapT": 10497
    }
  ],
  "scene": 0,
  "scenes": [
    {
      "name": "Sketchfab_Scene",
      "nodes": [
        0
      ]
    }
  ],
  "textures": [
    {
      "sampler": 0,
      "source": 0
    }
  ]
}
